# xmcd CD database file
#
# Track frame offsets:
#	150
#	14765
#	32777
#	47712
#	68232
#	89910
#	107812
#	126775
#	143757
#	160035
#	176700
#	197082
#	217752
#	233505
#	248035
#
# Disc length: 3509 seconds
#
# Revision: 2
# Processed by: cddbd v1.4PL0 Copyright (c) Steve Scherf et al.
# Submitted via: CDex 1.40Beta9
#
DISCID=d10db30f
DTITLE=Kenny Wayne Shepherd Band - Live On
DYEAR=1999
DGENRE=
TTITLE0=In 2 Deep
TTITLE1=Was
TTITLE2=Them Changes
TTITLE3=Last Goodbye
TTITLE4=Shotgun Blues
TTITLE5=Never Mind
TTITLE6=You Should Know Better
TTITLE7=Every Time It Rains
TTITLE8=Oh Well
TTITLE9=Wild Love
TTITLE10=Losing Kind
TTITLE11=Live On
TTITLE12=Where Was I?
TTITLE13=Electric Lullaby
TTITLE14=Fantasy Man (Bonus Track)
EXTD=Australian Release version. Contains bonus track Fantasy Man. YEAR: 1999
EXTT0=
EXTT1=
EXTT2=
EXTT3=
EXTT4=
EXTT5=
EXTT6=
EXTT7=
EXTT8=
EXTT9=
EXTT10=
EXTT11=
EXTT12=
EXTT13=
EXTT14=
PLAYORDER=
